<?xml version="1.0" encoding="UTF-8" standalone="no"?>
<!-- Created with Inkscape (http://www.inkscape.org/) -->

<svg
   width="64"
   height="64"
   viewBox="0 0 16.933333 16.933333"
   version="1.1"
   id="svg5"
   xml:space="preserve"
   xmlns="http://www.w3.org/2000/svg"
   xmlns:svg="http://www.w3.org/2000/svg"><defs
     id="defs2" /><g
     id="layer1"><path
       style="fill:#000000;fill-opacity:0.97619;stroke:#ffffff;stroke-width:0.15;stroke-linecap:round;stroke-linejoin:round;stroke-dasharray:none;stroke-opacity:1"
       id="path28927"
       d="M -10.196538,-1.3933157 -27.308422,-6.4602458 -14.36439,-18.746107 Z"
       transform="matrix(0.68590768,-0.20502955,0.20502955,0.68590768,22.129746,10.33881)" /><path
       style="fill:#61bfc2;fill-opacity:1;stroke:#3f3f3f;stroke-width:0;stroke-linecap:round;stroke-linejoin:round;stroke-dasharray:none;stroke-opacity:1"
       id="path28929"
       d="M 1.6149798,5.7949276 1.8402475,6.6522517 1.3933159,5.8867438 0.94638446,6.6522517 1.171652,5.7949276 0.31432785,6.0201952 1.0798358,5.5732636 0.31432781,5.1263322 1.171652,5.3515997 0.94638437,4.4942756 1.3933159,5.2597835 1.8402474,4.4942755 1.6149798,5.3515997 2.472304,5.1263321 1.706796,5.5732636 2.472304,6.0201951 Z"
       transform="matrix(4.7841198,-0.05664082,0.20703939,4.5705053,0.64249383,-14.204633)" /><path
       style="fill:#24f7ff;fill-opacity:1;stroke:#3f3f3f;stroke-width:0;stroke-linecap:round;stroke-linejoin:round;stroke-dasharray:none;stroke-opacity:1"
       id="path28931"
       d="M 1.6149798,5.7949276 1.8402475,6.6522517 1.3933159,5.8867438 0.94638446,6.6522517 1.171652,5.7949276 0.31432785,6.0201952 1.0798358,5.5732636 0.31432781,5.1263322 1.171652,5.3515997 0.94638437,4.4942756 1.3933159,5.2597835 1.8402474,4.4942755 1.6149798,5.3515997 2.472304,5.1263321 1.706796,5.5732636 2.472304,6.0201951 Z"
       transform="matrix(4.4553781,-1.7437362,1.8089361,4.2023962,-7.8272572,-9.5900297)" /></g></svg>
